<svg xmlns="http://www.w3.org/2000/svg" viewBox="0 0 1000 785" style="enable-background:new 0 0 1000 785" xml:space="preserve"><path d="M22.9 761.6v-78.7c-3.8-.9-7.6-1.2-11.5-1-3.9-.2-7.7.2-11.5 1v99.6H64c.6-3.4.9-6.9 1-10.4-.1-3.5-.4-7-1-10.4H22.9zm57.4-78.8v99.6h22.9v-99.6c-3.8-.8-7.6-1.2-11.5-1-3.8-.2-7.7.1-11.4 1zm99.6 48.5c8.5-3.6 13.8-12.2 13-21.4 0-17.7-11.5-28.7-39.6-28.7-10.9-.1-21.7.9-32.3 3.1v98c10.9 1.8 21.8 2.7 32.8 2.6 30.8 0 43.3-12 43.3-30.2.4-10.8-6.7-20.5-17.2-23.4zm-36-30.7h10.9c10.4 0 15.1 4.2 15.1 10.9s-3.6 12-14.1 12h-12v-22.9zm12.5 65.6h-12.5v-25h13c11.5 0 16.7 4.7 16.7 12.5 0 7.9-5.2 12.5-17.2 12.5zm73-4.6v-19.8h38.1c.9-3.4 1.2-6.9 1-10.4.2-3.3-.2-6.7-1-9.9h-38.1v-18.2h42.8c1-3.2 1.6-6.5 1.6-9.9 0-3.5-.5-7.1-1.6-10.4h-65.7v99.6h67.3c.8-3.4 1.2-6.9 1-10.4.2-3.5-.2-7-1-10.4l-44.4-.2zM366 713.1c0-19.8-12.5-32.3-42.8-32.3-11.2.1-22.4 1.3-33.4 3.6v98h23.5V748h12.5l20.3 34.9h5.7c6.6.1 13.3-.5 19.8-1.6l-23.5-38.6c11.4-5.5 18.4-17.1 17.9-29.6zm-40.7 15.6h-12v-27.6h12c11.5 0 17.2 5.2 17.2 13.6s-4.7 14-17.2 14zm128.3-36c.2-3.3-.2-6.7-1-9.9h-79.8c-.9 3.4-1.2 6.9-1 10.4-.2 3.3.2 6.7 1 9.9H401v79.2l11.5 1 12-1v-79.2h28.2c.7-3.3 1.1-6.9.9-10.4zm34.4-10.9c-4-.2-8.1.2-12 1l-37 98.5c4.1 1.1 8.3 1.6 12.5 1.6h10.4l22.4-62 3.1-9.9 2.6 9.9 8.9 22.9h-14.6c-1.7 3.2-3.1 6.5-4.2 9.9-.9 3.1-1.6 6.2-2.1 9.4h27.6l7.3 19.8h8.3c5.1 0 10.2-.5 15.1-1.6l-37-98.5c-3.6-.9-7.4-1.2-11.3-1zm88.6-1.1c-10.6 0-21.3.7-31.8 2.1v99.1c10.7 1.7 21.5 2.4 32.3 2.1 34.4 0 56.8-19.8 56.8-52.7s-20.2-50.6-57.3-50.6zm2.1 81.9h-10.9v-60h9.9c19.8 0 30.8 11.5 30.8 29.7s-11 30.3-29.8 30.3zm115.8-83.4c-30.2 0-52.1 21.9-52.1 53.2 0 31.3 21.9 52.7 52.1 52.7 27.9.9 51.3-21 52.2-48.9v-3.7c-.1-31.9-22-53.3-52.2-53.3zm0 83.9c-16.7 0-27.1-12-27.1-30.8s10.4-31.3 27.1-31.3c16.7 0 27.1 12 27.1 31.3s-11 30.8-27.1 30.8zm136.6-50c0-19.8-12.5-32.3-42.8-32.3-11.2.1-22.4 1.3-33.4 3.6v98h23.5V748h12l20.9 34.9h5.7c6.5.1 12.9-.4 19.3-1.6l-22.9-38.6c11-5.7 17.9-17.2 17.7-29.6zm-40.7 15.6h-12v-27.6h12c11.5 0 16.7 5.2 16.7 13.6s-4.7 14-16.7 14zm78.7 32.9v-19.8h38.1c.6-3.4 1-6.9 1-10.4-.1-3.3-.4-6.6-1-9.9h-38.1v-18.2h42.8c.9-3.2 1.2-6.6 1-9.9.2-3.5-.2-7-1-10.4h-65.7v99.6h67.3c.6-3.4.9-6.9 1-10.4-.1-3.5-.4-7-1-10.4l-44.4-.2zm99.1-40.7c-17.7-4.7-19.8-6.8-19.8-11.5s4.7-8.3 14.1-8.3c9.1-.1 18.1 2.6 25.5 7.8 6.2-4.3 10.1-11.2 10.4-18.8-10-7.1-22.2-10.6-34.4-9.9-22.9 0-38.1 12-38.1 31.3s14.6 26.6 31.3 30.2c16.7 3.6 20.3 7.8 20.3 12.5s-4.7 9.4-15.6 9.4c-10.4.1-20.5-3.4-28.7-9.9-6.3 4.2-10.2 11.2-10.4 18.8 6.3 5.7 18.8 12 38.6 12s39.1-12 38.6-33.4-13-25.5-31.8-30.2zM362.4 576.5c-1.4-1.7-3.2-2.9-5.2-3.6-6.3-2.6-13.6-1.4-18.8 3.1-1.5 1.7-2.7 3.6-3.6 5.7-.6 2-1 4.1-1 6.3v38c-.1 2.9.4 5.7 1.6 8.3.9 2.1 2.4 3.9 4.2 5.2 1.4 1.4 3.3 2.3 5.2 2.6l6.3 1c2.2 0 4.3-.6 6.3-1.6 2-.7 3.8-2 5.2-3.6 1.5-1.5 2.7-3.3 3.6-5.2.6-2 1-4.1 1-6.3v-4.2l-1-1h-9.4c-.6 0-1 .5-1 1v3.1c0 1.6 0 2.6-.5 3.1 0 .8-.4 1.6-1 2.1l-2.1 1h-1.6c-2.1 0-3.6-.5-4.2-1.6-.8-1.4-1.2-3.1-1-4.7V590c-.3-1.8.1-3.7 1-5.2.5-1.6 2.1-2.1 4.2-2.1 1.5-.1 3 .7 3.6 2.1 1.1 1.1 1.6 2.6 1.6 4.2v3.6H367v-4.2c-.1-2.3-.4-4.6-1-6.8-.8-1.9-2-3.7-3.6-5.1zm41.7-.6c-1.7-1.5-3.6-2.7-5.7-3.6-4.1-1-8.4-1-12.5 0l-5.2 3.6c-1.8 1.3-3.3 3.1-4.2 5.2-1 2.5-1.6 5.1-1.6 7.8v36.5c-.1 2.7.4 5.4 1.6 7.8.8 2.1 2.2 4 4.2 5.2l5.2 3.6 6.3 1 6.3-1c2.1-.9 4-2.1 5.7-3.6 1.8-1.4 3.2-3.2 4.2-5.2.9-2.5 1.3-5.2 1-7.8V589c.7-5-1.3-10-5.3-13.1zm-5.8 49.6c.2 1.8-.6 3.6-2.1 4.7-2.4 2.1-6 2.1-8.3 0-1.1-1.3-1.7-3-1.6-4.7V589c-.1-1.7.4-3.4 1.6-4.7 2.4-2.1 6-2.1 8.3 0 1.5 1.1 2.3 2.9 2.1 4.7v36.5zm56.3-53.7h-9.4c-.6 0-1 .5-1 1v34.4c0 .5-1 1-1 0l-12.5-34.4-1-1h-8.9c-.6 0-1 .5-1 1v68.8c0 .6.5 1 1 1h9.4l1-1v-34.4c0-.5 1-.5 1 0l12.5 34.9h9.9l1-1v-68.3l-1-1zm56.3 0h-9.4v1L490 605.6c0 .5-1 .5-1 0l-11.5-32.8c-.5-.5-.5-1-1-1h-9.9c-.5 0-.5.5-.5 1v68.8c0 .5 0 1 .5 1h9.9c.5 0 .5-.5.5-1v-33.9c.2-.5.8-.8 1.3-.6.1 0 .2.1.2.1l7.3 22.4h6.3l7.3-22.4c0-.5 1-.5 1 .5v33.9c0 .6.5 1 1 1h9.4l1-1v-68.8l-.9-1zm41.2 0h-29.2c-.5 0-.5.5-.5 1v68.8c0 .5 0 1 .5 1h29.2c.6 0 1-.5 1-1v-9.4c0-.6-.5-1-1-1h-18.8V613h16.2l1-1v-9.4c0-.6-.5-1-1-1h-16.2v-17.7h18.8c.6 0 1-.5 1-1V574l-1-2.2zm38.1 5.7c-1.6-1.8-3.5-3.2-5.7-4.2-2.6-1.1-5.5-1.7-8.3-1.6H562l-1 1v68.8l1 1h13c5.4.7 10.8-1.3 14.6-5.2 3.4-4.1 5.1-9.3 4.7-14.6v-3.6c.1-3-.4-6.1-1.6-8.9-1-1.9-2.4-3.5-4.2-4.7l1.6-1.6 2.6-2.6c.6-1.1.9-2.4 1-3.6.5-1.7.6-3.5.5-5.2V590c.1-2.3-.2-4.6-1-6.8-.4-2.1-1.5-4.1-3-5.7zm-6.8 47.5c0 1.1-.4 2.2-1 3.1-.4.9-1.2 1.7-2.1 2.1l-4.2 1h-3.6v-19.3c0-.5 0-1 .5-1h3.1l4.2 1c.9.1 1.7.7 2.1 1.6.8.9 1.1 2 1 3.1 0 1 .5 2.6.5 4.2s-.5 2.6-.5 4.2zm-1-26.6c-1.7 1.5-4 2.2-6.3 2.1h-3.6v-16.7h3.1c3.1 0 5.2.5 6.3 2.1 1.4 2 2.1 4.4 2.1 6.8-.1 1.9-.7 3.9-1.6 5.7zm49-22.5c-1.7-1.5-3.6-2.7-5.7-3.6-3.9-1-8.1-1-12 0-2.1.9-4 2.1-5.7 3.6-1.7 1.5-3.1 3.3-4.2 5.2-1 2.5-1.6 5.1-1.6 7.8v36.5c-.1 2.7.4 5.4 1.6 7.8 1.1 2.1 2.5 4.1 4.2 5.7l5.7 3.1 5.7 1 6.3-1 5.7-3.1c1.7-1.7 3.1-3.6 4.2-5.7 1.1-2.4 1.7-5.1 1.6-7.8V589c0-2.7-.5-5.3-1.6-7.8-1.1-2-2.6-3.8-4.2-5.3zm-5.8 49.6c.1 1.7-.4 3.4-1.6 4.7-1.3 1.1-3 1.6-4.7 1.6-1.5 0-3-.6-4.2-1.6-1.1-1.3-1.7-3-1.6-4.7V589c-.1-1.7.4-3.4 1.6-4.7 1.2-1 2.6-1.5 4.2-1.6 1.7 0 3.4.5 4.7 1.6 1.1 1.3 1.7 3 1.6 4.7v36.5zm49.6 5.7h-18.8v-58.4l-1-1H646c-.6 0-1 .5-1 1v68.8c0 .6.5 1 1 1h28.7c.6 0 1-.5 1-1v-9.4c0-.3-.2-.7-.5-1zm32.3-29.7h-19.3c-1 0-1.6.5-1.6 1v9.4c0 .5.5 1 1.6 1h19.3c.6 0 1-.5 1-1v-9.4c0-.5-.4-1-1-1zm-395.7 0h-19.3c-.6 0-1 .5-1 1v9.4c0 .6.5 1 1 1h19.3c.6 0 1-.5 1-1v-9.4c0-.5-.4-1-1-1z"/><linearGradient id="a" gradientUnits="userSpaceOnUse" x1="499.473" y1="437.216" x2="499.473" y2="933.874" gradientTransform="matrix(1 0 0 -1 0 937.041)"><stop offset="0" style="stop-color:#e4ac52"/><stop offset=".04" style="stop-color:#4f361c"/><stop offset=".09" style="stop-color:#614726"/><stop offset=".44" style="stop-color:#4f361c"/><stop offset=".67" style="stop-color:#e4ac52"/><stop offset=".83" style="stop-color:#745124"/><stop offset=".93" style="stop-color:#4f361c"/><stop offset="1" style="stop-color:#e4ac52"/></linearGradient><path d="M501.6 403.9v2.6c-.3 0-.5-.2-.5-.5l-1-1c-.6 0-1 .5-1 1l-2.1 1h-2.6c.5-.5 3.1-2.1 3.6-3.1l1.6-1.6h.5c.4 1.1 1.5 1.1 1.5 1.6zm-32.4 95.9 2.6-2.6h.5c.6 0 1-.5 1-1V493l2.6-6.3v-4.2h.5l5.7-1.6c7.6-3.3 12.2-11.1 11.5-19.3v-15.1l1-1h2.1c-.5-.5-.5-.5-.5-1v-1c-7-.9-12.6-6.2-14.1-13l-1-1.6h-4.2c0 .5 0 1-.5 1H475c-.5 0-1-2.6-1-5.2s.5-4.7 1-4.7h1.6c.5 0 .5 0 .5.5h2.6c0 .4.2.8.5 1h1c0-1 .5-2.1.5-3.1s.5 0 .5-.5c2-4.8 5.7-8.7 10.4-10.9-.5 0 0-.5.5-1l1.6-1.6c0-.5 1-1.6 2.1-2.1v-3.1c.5-1.1.7-2.4.5-3.6h-.5c-.5 0-1 1-1.6 2.1v1c0 .5 0 .5-.5.5s-.5-1.6 0-2.6l1.6-2.6 2.1-1h.5c0-.5-.5-.5-.5-1 0-.6.5-1 1-1 1 0 1 .5 1 1s0 1-.5 1h1.6c1.2.4 2.6.2 3.6-.5-1.3.6-2.7 1-4.2 1v1c-.4.8-.6 1.7-.5 2.6 0 .5 0 .5.5 1s1 2.6 1 3.1v3.1h.5c6.6 1 12 5.7 14.1 12h.5c.5 1 .5 2.1 1 3.1h1v-1h2.6c0-.5 0-.5.5-.5h1.6c.5 0 .5 2.1.5 4.7s0 5.2-.5 5.2h-1.6c-.5 0-.5-.5-.5-1H519c-.3 0-.5-.2-.5-.5h-1l-1 1.6c-1.6 6.8-7.2 12-14.1 13v1c0 .5 0 .5-.5 1h2.1l1 1v14.6c-.7 8.2 3.9 16 11.5 19.3l5.7 1.6h.5v2.6l2.6 6.3v3.1c0 .6.5 1 1 1h.5l2.6 2.6H544C516.7 408.6 524 62.9 524.5.4c-16.8-1.1-33.7.5-50.1 4.7.5 62.6 7.3 408.2-19.8 494.8h14.6z" style="fill:url(#a)"/><linearGradient id="b" gradientUnits="userSpaceOnUse" x1="479.401" y1="761.874" x2="479.401" y2="905.199" gradientTransform="matrix(1 0 0 -1 0 937.041)"><stop offset=".25" style="stop-color:#a57531"/><stop offset=".79" style="stop-color:#fde489"/><stop offset="1" style="stop-color:#745124"/></linearGradient><path d="M480.2 175c-.4-2.1-.6-4.2-.5-6.3 0-3.6-.5-9.4-.5-16.2 0-6.8-.5-14.6-.5-22.9V54.1c0-6.8.5-12 .5-16.2 0 4.2 0 9.4.5 16.2V77c.5 8.9.5 17.7.5 26.6v49c0 6.8-.5 12.5-.5 16.2l.5 6.2z" style="fill:url(#b)"/><linearGradient id="c" gradientUnits="userSpaceOnUse" x1="469.495" y1="442.013" x2="469.495" y2="655.566" gradientTransform="matrix(1 0 0 -1 0 937.041)"><stop offset=".1" style="stop-color:#4f361c"/><stop offset=".29" style="stop-color:#fde489"/><stop offset=".5" style="stop-color:#a57531"/><stop offset=".67" style="stop-color:#e4ac52"/><stop offset=".84" style="stop-color:#745124"/></linearGradient><path d="m460.4 494.6 2.1-8.9c.5-3.1 1-6.3 2.1-10.4 1-4.2 1-8.3 1.6-13.6 1-5.3 1.7-10.7 2.1-16.2.5-5.7 1-11.5 2.1-17.7l1.6-19.3c.5-6.8 1-13.6 1-20.3 0-6.8 2.1-26.6 2.6-39.1s1-24 1.6-34.4c1-19.8 1.6-33.4 1.6-33.4v9.4c0 5.7 0 14.1-.5 24.5s0 21.4-.5 33.9-1.6 26.1-2.1 39.6l-1.6 19.8c-.5 6.8-1 13-2.1 19.3-1 6.3-1 12.5-2.1 18.2-1 5.7-1.6 10.9-2.1 15.6s-1.6 9.9-2.6 13.6c-1 3.6-1.6 7.8-2.1 10.4-.5 2.6-1.6 5.2-1.6 6.8l-1.1 2.2z" style="fill:url(#c)"/><linearGradient id="d" gradientUnits="userSpaceOnUse" x1="530.234" y1="442.013" x2="530.234" y2="655.566" gradientTransform="matrix(1 0 0 -1 0 937.041)"><stop offset=".1" style="stop-color:#4f361c"/><stop offset=".31" style="stop-color:#a57531"/><stop offset=".61" style="stop-color:#fde489"/><stop offset=".81" style="stop-color:#e4ac52"/><stop offset=".97" style="stop-color:#745124"/></linearGradient><path d="M521.4 281.4s.5 13.6 1.6 33.4c.7 10.4 1.2 21.9 1.6 34.4.5 12.5 1.6 26.1 2.6 39.1s.5 13.6 1 20.3l1.6 19.3c.5 6.3 1.6 12 2.1 17.7s1 11.5 1.6 16.2c.5 4.7 1.6 9.4 2.1 13.6.5 4.2 1.6 7.3 2.1 10.4l1.6 8.9v-2.1c-.7-2.2-1.2-4.5-1.6-6.8-.5-2.6-1.6-6.3-2.1-10.4-1.3-4.4-2.1-9-2.6-13.6-1-5.2-1.7-10.4-2.1-15.6-1-5.7-1.6-12-2.1-18.2-.5-6.3-1.6-12.5-2.1-19.3l-1.6-19.8c-.5-13.6-1.6-27.1-2.1-39.6s-.5-24-1-33.9v-33.9h-.6z" style="fill:url(#d)"/><linearGradient id="e" gradientUnits="userSpaceOnUse" x1="520.328" y1="761.874" x2="520.328" y2="905.251" gradientTransform="matrix(1 0 0 -1 0 937.041)"><stop offset=".12" style="stop-color:#a57531"/><stop offset=".49" style="stop-color:#fde489"/><stop offset=".97" style="stop-color:#745124"/></linearGradient><path d="M520.8 31.6v6.3c0 4.2.5 9.4.5 16.2v75.6c-.5 8.3-.5 16.2-.5 22.9 0 6.8-.5 12.5-.5 16.2-.3 2.1-.5 4.2-.5 6.3v-6.3c0-3.6-.5-9.4-.5-16.2V77c.5-8.3.5-16.2.5-22.9s.5-12 .5-16.2c.3-2.1.5-4.2.5-6.3z" style="fill:url(#e)"/><linearGradient id="f" gradientUnits="userSpaceOnUse" x1="422.578" y1="437.216" x2="422.578" y2="915.313" gradientTransform="matrix(1 0 0 -1 0 937.041)"><stop offset="0" style="stop-color:#745124"/><stop offset=".25" style="stop-color:#745124"/><stop offset=".5" style="stop-color:#e4ac52"/><stop offset=".75" style="stop-color:#745124"/><stop offset="1" style="stop-color:#e4ac52"/></linearGradient><path d="M383.7 499.8h45.4c22.2-74.4 33.3-151.7 32.8-229.4 0-91.2-14.1-176.2-39.1-248.2h-.5c-10.2 5.1-19.8 11.2-28.7 18.2 28.4 69.1 42.8 143.2 42.2 217.9 0 90.2-19.8 173.6-52.7 240.9l.6.6z" style="fill:url(#f)"/><linearGradient id="g" gradientUnits="userSpaceOnUse" x1="421.276" y1="442.951" x2="421.276" y2="909.057" gradientTransform="matrix(1 0 0 -1 0 937.041)"><stop offset=".13" style="stop-color:#4f361c"/><stop offset=".67" style="stop-color:#e4ac52"/><stop offset=".9" style="stop-color:#4f361c"/></linearGradient><path d="M419.7 28c-9.4 2.6-18.2 6.8-26.1 12.5l1.6 4.2c27.6 67.9 41.4 140.5 40.7 213.8 0 88.1-18.8 169.4-50.1 235.7h39.1c21.6-72.2 32.3-147.3 31.8-222.6 0-88.8-12.5-173.8-37-243.6z" style="fill:url(#g)"/><linearGradient id="h" gradientUnits="userSpaceOnUse" x1="438.31" y1="436.799" x2="438.31" y2="915.939" gradientTransform="matrix(1 0 0 -1 0 937.041)"><stop offset="0" style="stop-color:#fde489"/><stop offset=".11" style="stop-color:#fae187"/><stop offset=".2" style="stop-color:#f0d781"/><stop offset=".28" style="stop-color:#dfc676"/><stop offset=".36" style="stop-color:#c7ae67"/><stop offset=".43" style="stop-color:#a88f54"/><stop offset=".5" style="stop-color:#836a3c"/><stop offset=".57" style="stop-color:#573e21"/><stop offset=".58" style="stop-color:#4f361c"/><stop offset=".61" style="stop-color:#5b4223"/><stop offset=".65" style="stop-color:#7a6137"/><stop offset=".71" style="stop-color:#ac9356"/><stop offset=".78" style="stop-color:#f1d881"/><stop offset=".79" style="stop-color:#fde489"/><stop offset=".93" style="stop-color:#876e3f"/><stop offset="1" style="stop-color:#4f361c"/></linearGradient><path d="m428.6 499.3-4.2-5.2c1.6-4.6 3-9.3 4.2-14.1 1.5-4.8 2.7-9.7 3.6-14.6 2.6-9.4 4.7-18.8 6.8-28.7l1.6-7.3 1.6-7.3c.5-4.7 1.6-9.4 2.6-14.6s3.1-19.3 4.2-29.2c2.6-19.3 4.2-39.1 5.2-58.9s1.6-39.1 1.6-58.9c.1-4.9-.1-9.7-.5-14.6v-15.1c0-9.4-1-19.3-1.6-29.2-.5-9.9-1.6-19.8-2.6-29.7l-2.6-14.6-2.1-14.6-2.1-14.6-2.6-14.6-2.7-14.1-3.1-14.6-3.6-14.6c-1-4.7-2.6-9.4-3.6-14.1-1.6-4.6-3-9.3-4.2-14.1l-4.8-14 3.1-6.3-3.1 6.3 4.7 13.6 4.7 14.6c1.1 4.8 2.5 9.5 4.2 14.1 1 4.7 2.6 9.4 3.6 14.1L440 99l3.1 14.6 2.6 14.6 2.6 14.6 2.1 14.6L452 172l3.1 29.7c.5 9.4 1.6 19.3 1.6 29.2v29.7c.5 19.8 0 39.7-1.6 59.4-.9 19.7-2.8 39.4-5.7 58.9-1 9.4-2.6 19.3-4.7 29.2-2.1 9.9-1.6 9.4-2.6 14.6l-1.6 7.3-1.6 6.8-2.1 14.6c-1 4.7-2.6 9.4-3.6 14.6s-2.6 9.4-4.2 14.1c-1.6 4.6-3 9.3-4.2 14.1l3.8 5.1z" style="fill:url(#h)"/><linearGradient id="i" gradientUnits="userSpaceOnUse" x1="362.883" y1="437.216" x2="362.883" y2="879.339" gradientTransform="matrix(1 0 0 -1 0 937.041)"><stop offset="0" style="stop-color:#4f361c"/><stop offset=".25" style="stop-color:#745124"/><stop offset=".58" style="stop-color:#e4ac52"/><stop offset=".88" style="stop-color:#745124"/><stop offset="1" style="stop-color:#e4ac52"/></linearGradient><path d="M303.4 499.8H354c42.8-62.6 68.8-146.5 68.8-238.8.6-70.6-15.6-140.3-47.4-203.3h-.5c-5.8 5.8-11 12.1-15.6 18.8 30.7 53.4 46.7 114.1 46.4 175.7 0 99.6-34.9 203.3-102.7 246.1-.1 1-.1 1.5.4 1.5z" style="fill:url(#i)"/><linearGradient id="j" gradientUnits="userSpaceOnUse" x1="363.656" y1="442.951" x2="363.656" y2="871.518" gradientTransform="matrix(1 0 0 -1 0 937.041)"><stop offset=".25" style="stop-color:#4b331a"/><stop offset=".5" style="stop-color:#a57531"/><stop offset=".75" style="stop-color:#4f361c"/></linearGradient><path d="M373.3 65.5c-5.1 3.2-9.9 7.1-14.1 11.5l1.6 2.6c29.6 52.9 45 112.5 44.8 173.1 0 95.9-32.3 195.5-95.4 241.4h41.2c40.7-60.5 65.7-141.3 65.7-230.4 0-73-15.1-142.9-43.8-198.2z" style="fill:url(#j)"/><linearGradient id="k" gradientUnits="userSpaceOnUse" x1="384.967" y1="437.216" x2="384.967" y2="872.196" gradientTransform="matrix(1 0 0 -1 0 937.041)"><stop offset="0" style="stop-color:#4f361c"/><stop offset=".07" style="stop-color:#765d34"/><stop offset=".18" style="stop-color:#a68d52"/><stop offset=".27" style="stop-color:#ccb36a"/><stop offset=".36" style="stop-color:#e7ce7b"/><stop offset=".44" style="stop-color:#f7de85"/><stop offset=".5" style="stop-color:#fde489"/><stop offset=".6" style="stop-color:#fae187"/><stop offset=".67" style="stop-color:#f0d781"/><stop offset=".74" style="stop-color:#dfc676"/><stop offset=".81" style="stop-color:#c7ae67"/><stop offset=".87" style="stop-color:#a88f54"/><stop offset=".93" style="stop-color:#836a3c"/><stop offset=".99" style="stop-color:#573e21"/><stop offset="1" style="stop-color:#4f361c"/></linearGradient><path d="M373.3 65.5c4.2 8.3 8.3 16.7 12 25.5l2.6 6.3c1 2.1 1.6 4.2 2.6 6.8.6 2.2 1.5 4.3 2.6 6.3l2.1 6.8c3.1 8.9 5.7 17.7 8.3 26.6l3.1 13.6 3.1 14.1c.5 4.7 1.6 8.9 2.1 13.6.9 4.7 1.6 9.4 2.1 14.1 1.6 9.1 2.6 18.4 3.1 27.6.5 9.4 1 18.8 1 28.2.5 9.4.5 18.8 0 28.2-.9 18.7-2.8 37.3-5.7 55.8-3.1 18.5-7.5 36.8-13 54.7-5.2 17.9-12 35.4-20.3 52.1-7.9 16.9-17.1 33.1-27.6 48.5l2.6 5.7-2.6-5.7c10.2-15.6 19.1-32 26.6-49 7.9-16.9 14.5-34.3 19.8-52.1 5.2-18 9.4-36.3 12.5-54.7 1.6-8.9 2.6-18.2 3.6-27.6s1.6-18.2 2.1-27.6.5-18.8 0-28.2-.5-18.8-1-27.6-1.6-18.8-2.6-28.2c-1-9.4-1.6-8.9-2.1-13.6-.6-4.7-1.5-9.4-2.6-14.1l-2.6-13.6-3.1-13.6c-2.1-9.2-4.7-18.2-7.8-27.1l-2.1-6.3c-.5-2.4-1.4-4.7-2.6-6.8-.5-2.1-1.6-4.2-2.1-6.8l-2.6-6.3c-3.7-8.9-7.3-17.2-11.5-25.6z" style="fill:url(#k)"/><linearGradient id="l" gradientUnits="userSpaceOnUse" x1="499.995" y1="881.268" x2="499.995" y2="929.599" gradientTransform="matrix(1 0 0 -1 0 937.041)"><stop offset="0" style="stop-color:#4f361c"/><stop offset=".14" style="stop-color:#5b3a1f"/><stop offset=".41" style="stop-color:#6e4123"/><stop offset=".6" style="stop-color:#754324"/><stop offset="1" style="stop-color:#4f361c"/></linearGradient><path d="M479.1 8.7v22.9c0 7.3 0 15.6.5 24h40.7c0-8.3.5-16.7.5-24V8.7c-6.9-.9-13.9-1.2-20.9-1-6.9-.2-13.8.1-20.8 1z" style="fill:url(#l)"/><linearGradient id="m" gradientUnits="userSpaceOnUse" x1="499.734" y1="929.439" x2="499.734" y2="442.43" gradientTransform="matrix(1 0 0 -1 0 937.041)"><stop offset=".06" style="stop-color:#4f361c"/><stop offset=".22" style="stop-color:#a57531"/><stop offset=".25" style="stop-color:#ad7d36"/><stop offset=".29" style="stop-color:#c39545"/><stop offset=".35" style="stop-color:#e7ba5c"/><stop offset=".38" style="stop-color:#fbcf69"/><stop offset=".53" style="stop-color:#fbcf69"/><stop offset=".74" style="stop-color:#e4ac52"/><stop offset=".75" style="stop-color:#d29e4b"/><stop offset=".78" style="stop-color:#a3793b"/><stop offset=".81" style="stop-color:#7f5c2d"/><stop offset=".83" style="stop-color:#644724"/><stop offset=".86" style="stop-color:#553a1e"/><stop offset=".88" style="stop-color:#4f361c"/><stop offset="1" style="stop-color:#734122"/></linearGradient><path d="M460.4 494.6c22.9-86 19.8-358.7 18.8-463V8.7c6.9-.9 13.9-1.2 20.9-1 7-.2 13.9.2 20.9 1v22.9c-1.6 104.3-4.7 377 18.2 463l-12.5-1v-1l-2.6-6.3v-3.6h-.5l-5.7-1.6c-7.6-3.3-12.2-11.1-11.5-19.3v-15.1l-1-1h-2.1c.5-.5.5-.5.5-1v-1c6.9-1.1 12.5-6.2 14.1-13l1-1.6h1c0 .3.2.5.5.5h2.6c0 .5 0 1 .5 1h1.6c.5 0 .5-2.6.5-5.2s0-4.7-.5-4.7h-1.6c-.5 0-.5 0-.5.5h-2.6v1h-1c-.5-1-.5-2.1-1-3.1h-.5c-2.1-6.3-7.5-11-14.1-12h-.5V404c0-.5 0-1-1-3.1s-.5-.5-.5-1c0-.9.1-1.8.5-2.6v-1c1.4 0 2.9-.4 4.2-1-1.1.7-2.4.9-3.6.5H501c.5 0 .5-.5.5-1s0-1-1-1c-.6 0-1 .5-1 1s.5.5.5 1h-.5l-2.1 1-1.6 2.6c-.5 1-.5 2.6 0 2.6s.5 0 .5-.5v-1c.5-1 1-2.1 1.6-2.1h.5c.2 1.2 0 2.5-.5 3.6v3.1c-1 .5-2.1 1.6-2.1 2.1l-1.6 1.6c-.5.5-1 1-.5 1-4.7 2.3-8.4 6.2-10.4 10.9 0 .5 0 .5-.5.5s-.5 2.1-.5 3.1h-1c-.3-.3-.5-.6-.5-1h-2.6c0-.5 0-.5-.5-.5H476c-.5 0-1 2.1-1 4.7s.5 5.2 1 5.2h1.6c.5 0 .5-.5.5-1h4.2l1 1.6c1.5 6.9 7.1 12.1 14.1 13v1c0 .5 0 .5.5 1h-2.1l-1 1v14.6c.7 8.2-3.9 16-11.5 19.3l-5.7 1.6h-.5v2.6l-2.6 6.3v1l-14.1-.1zm39.6-92.3h-.5l-1.6 1.6c-.5 1-3.1 2.6-3.6 3.1h2.6l2.1-1c0-.6.5-1 1-1l1 1c0 .3.2.5.5.5v-2.6c.1-.5-1-.5-1.5-1.6z" style="fill:url(#m)"/><linearGradient id="n" gradientUnits="userSpaceOnUse" x1="177.128" y1="437.216" x2="177.128" y2="915.313" gradientTransform="rotate(180 377.27 468.52)"><stop offset="0" style="stop-color:#745124"/><stop offset=".25" style="stop-color:#745124"/><stop offset=".5" style="stop-color:#e4ac52"/><stop offset=".75" style="stop-color:#745124"/><stop offset="1" style="stop-color:#e4ac52"/></linearGradient><path d="M616.3 499.8h-45.4c-22.2-74.4-33.3-151.7-32.8-229.4 0-91.2 14.1-176.2 39.1-248.2h.5c10.2 5.1 19.8 11.2 28.7 18.2-27.1 62.6-42.2 137.6-42.2 217.9 0 90.2 19.3 173.6 52.7 240.9l-.6.6z" style="fill:url(#n)"/><linearGradient id="o" gradientUnits="userSpaceOnUse" x1="175.826" y1="442.951" x2="175.826" y2="909.057" gradientTransform="rotate(180 377.27 468.52)"><stop offset=".13" style="stop-color:#4f361c"/><stop offset=".67" style="stop-color:#e4ac52"/><stop offset=".9" style="stop-color:#4f361c"/></linearGradient><path d="M580.3 28c9.3 2.5 17.9 6.7 25.5 12.5l-1.6 4.2c-27.1 68-40.8 140.6-40.1 213.8 0 88.1 18.2 169.4 50.1 235.7h-39.1c-21.6-72.2-32.3-147.3-31.8-222.6 0-88.8 12.5-173.8 37-243.6z" style="fill:url(#o)"/><linearGradient id="p" gradientUnits="userSpaceOnUse" x1="193.647" y1="436.799" x2="193.647" y2="915.939" gradientTransform="rotate(180 377.27 468.52)"><stop offset="0" style="stop-color:#fde489"/><stop offset=".11" style="stop-color:#fae187"/><stop offset=".2" style="stop-color:#f0d781"/><stop offset=".28" style="stop-color:#dfc676"/><stop offset=".36" style="stop-color:#c7ae67"/><stop offset=".43" style="stop-color:#a88f54"/><stop offset=".5" style="stop-color:#836a3c"/><stop offset=".57" style="stop-color:#573e21"/><stop offset=".58" style="stop-color:#4f361c"/><stop offset=".61" style="stop-color:#5b4223"/><stop offset=".65" style="stop-color:#7a6137"/><stop offset=".71" style="stop-color:#ac9356"/><stop offset=".78" style="stop-color:#f1d881"/><stop offset=".79" style="stop-color:#fde489"/><stop offset=".93" style="stop-color:#876e3f"/><stop offset="1" style="stop-color:#4f361c"/></linearGradient><path d="m570.9 499.3 4.2-5.2c-1-4.7-2.6-9.4-3.6-14.1-1-4.7-2.6-9.9-4.2-14.6l-6.3-28.7-1.6-7.3-1.6-7.3c-1-4.7-1.6-9.4-2.6-14.6s-3.1-19.3-4.2-29.2c-2.6-19.3-4.7-39.1-5.7-58.9s-1.6-39.1-1-58.9c-.1-4.9.1-9.7.5-14.6v-15.1c0-9.8.5-19.5 1.6-29.2.5-9.9 1.6-19.8 2.6-29.7l2.1-14.6 1.6-14.6 2.6-14.6 2.6-14.6 2.6-14.1 3.1-14.6 3.6-14.6c1-4.7 2.6-9.4 3.6-14.1s2.6-9.4 4.2-14.1l4.7-14.1-3.1-6.3 3.1 6.3-5.2 13.6c-1 4.7-2.6 9.4-4.2 14.6-1.6 5.2-2.6 9.4-4.2 14.1-1.6 4.7-2.6 9.4-3.6 14.1l-3.1 14.6-3.1 14.6-2.6 14.6-2.6 14.6-2.1 14.6-2.1 14.6c-1 9.9-2.1 19.8-2.6 29.7-.5 9.9-1.6 19.3-2.1 29.2v29.7c-.5 19.8 0 39.6 1 59.4 1 19.8 3.1 39.1 6.3 58.9 1 9.4 2.6 19.3 4.2 29.2l3.1 14.6 1.6 7.3 1.6 6.8 3.1 14.6c1 4.7 2.6 9.4 3.6 14.6s2.6 9.4 4.2 14.1c1.6 4.7 2.6 9.4 4.2 14.1l-4.2 5.2z" style="fill:url(#p)"/><linearGradient id="q" gradientUnits="userSpaceOnUse" x1="117.496" y1="437.216" x2="117.496" y2="879.391" gradientTransform="rotate(180 377.27 468.52)"><stop offset="0" style="stop-color:#4f361c"/><stop offset=".25" style="stop-color:#745124"/><stop offset=".58" style="stop-color:#e4ac52"/><stop offset=".88" style="stop-color:#745124"/><stop offset="1" style="stop-color:#e4ac52"/></linearGradient><path d="M696.6 499.8H646c-42.8-62.6-68.8-146.5-68.8-238.8-.5-70.4 15.7-139.9 47.4-202.8h.5c5.8 5.6 10.8 11.9 15.1 18.8h.5C610 130.4 594 191.1 594.4 252.7c0 99.6 34.9 203.3 102.2 246.1.5.5.5 1 0 1z" style="fill:url(#q)"/><linearGradient id="r" gradientUnits="userSpaceOnUse" x1="118.467" y1="442.951" x2="118.467" y2="871.518" gradientTransform="rotate(180 377.27 468.52)"><stop offset=".25" style="stop-color:#4b331a"/><stop offset=".5" style="stop-color:#a57531"/><stop offset=".75" style="stop-color:#4f361c"/></linearGradient><path d="M626.7 65.5c5.1 3.2 9.9 7.1 14.1 11.5l-2.1 2.6c-29.4 52.9-44.7 112.5-44.3 173.1 0 95.9 32.3 195.5 95.4 241.4h-41.2c-40.7-60.5-66.2-141.3-66.2-230.4 0-73 15.6-142.9 44.3-198.2z" style="fill:url(#r)"/><linearGradient id="s" gradientUnits="userSpaceOnUse" x1="139.518" y1="437.216" x2="139.518" y2="872.196" gradientTransform="rotate(180 377.27 468.52)"><stop offset="0" style="stop-color:#4f361c"/><stop offset=".07" style="stop-color:#765d34"/><stop offset=".18" style="stop-color:#a68d52"/><stop offset=".27" style="stop-color:#ccb36a"/><stop offset=".36" style="stop-color:#e7ce7b"/><stop offset=".44" style="stop-color:#f7de85"/><stop offset=".5" style="stop-color:#fde489"/><stop offset=".6" style="stop-color:#fae187"/><stop offset=".67" style="stop-color:#f0d781"/><stop offset=".74" style="stop-color:#dfc676"/><stop offset=".81" style="stop-color:#c7ae67"/><stop offset=".87" style="stop-color:#a88f54"/><stop offset=".93" style="stop-color:#836a3c"/><stop offset=".99" style="stop-color:#573e21"/><stop offset="1" style="stop-color:#4f361c"/></linearGradient><path d="M626.7 65.5c-4.2 8.3-8.3 16.7-12 25.5l-2.6 6.3c-1 2.1-1.6 4.2-2.6 6.8l-2.6 6.3-2.1 6.8c-3.1 8.9-5.7 17.7-8.3 26.6l-3.1 13.6-3.1 14.1c-.6 4.6-1.5 9.1-2.6 13.6-.4 4.7-1.1 9.4-2.1 14.1-1 9.4-2.1 18.2-2.6 27.6s-1 18.8-1 28.2c-.5 9.4-.5 18.8 0 28.2.6 18.7 2.5 37.3 5.7 55.8 3.1 18.5 7.5 36.8 13 54.7 5.3 17.9 11.9 35.3 19.8 52.1 8.3 16.8 17.7 33 28.2 48.5l-2.6 5.7 2.6-5.7c-10.4-15.6-19.4-32-27.1-49-7.5-17-14-34.4-19.3-52.1-5.2-18-9.4-36.3-12.5-54.7-1.6-8.9-2.6-18.2-3.6-27.6s-1.6-18.2-2.1-27.6-.5-18.8 0-28.2.5-18.8 1-27.6 1.6-18.8 2.6-28.2c1-9.4 1.6-8.9 2.1-13.6.5-4.7 1.6-9.4 2.1-14.1L595 158l3.1-13.6c2.1-9.2 4.7-18.2 7.8-27.1l2.1-6.3c.5-2.6 1.6-4.7 2.1-6.8s1.6-4.2 2.6-6.8l2.6-6.3c3.6-8.9 7.2-17.2 11.4-25.6z" style="fill:url(#s)"/><linearGradient id="t" gradientUnits="userSpaceOnUse" x1="469.025" y1="485.182" x2="497.336" y2="485.182" gradientTransform="matrix(1 0 0 -1 0 937.041)"><stop offset="0" style="stop-color:#4f361c"/><stop offset=".29" style="stop-color:#fde489"/><stop offset=".5" style="stop-color:#a57531"/><stop offset=".67" style="stop-color:#e4ac52"/><stop offset=".84" style="stop-color:#745124"/></linearGradient><path d="M497.4 444.6h-.5v-1c-1.7 0-3.3-.6-4.7-1.6l-4.2-2.6-3.1-4.2c-.5-.5-.5-1.6-1-2.1s-.5-1.6-1-2.1v-1.6H475c-.4-1.2-.6-2.4-.5-3.6v-3.6c.5 0 .5-.5.5-1h6.8c-.1-1.1.1-2.1.5-3.1h.5c1.7-4.8 5.2-8.8 9.9-10.9-4.8 2.1-8.6 6-10.4 10.9h-.5c-.4.8-.6 1.7-.5 2.6h-6.8c-.5.5-.5.5-.5 1v8.9h6.8v1c0 1 .5 1.6.5 2.6l1.6 2.1c.6 1.7 1.7 3.2 3.1 4.2l4.2 3.1 4.7 1.6v1h-2.6v11.9c.1 3-.1 5.9-.5 8.9-.6 2.9-1.8 5.6-3.6 7.8-1.7 2.4-4 4.2-6.8 5.2l-3.6 1.6h-3.1v2.1c-.3.3-.5.6-.5 1l-1 2.1v3.1c0 .5-.5.5-.5 1v3.6h-2.6l-1.6 2.1 1.6-2.1 1.6-1h1v-3.6c0-.5 0-.5.5-1v-1l1-2.1 1-1.6v-3.6h2.6l4.2-1.6c2.7-1.3 5.2-3 7.3-5.2 1.5-2.6 2.8-5.4 3.6-8.3.4-2.9.6-5.9.5-8.9v-9.4h3.1l.9-2.6z" style="fill:url(#t)"/><linearGradient id="u" gradientUnits="userSpaceOnUse" x1="516.939" y1="437.112" x2="516.939" y2="533.044" gradientTransform="matrix(1 0 0 -1 0 937.041)"><stop offset="0" style="stop-color:#e4ac52"/><stop offset=".16" style="stop-color:#745124"/><stop offset=".5" style="stop-color:#a57531"/><stop offset=".71" style="stop-color:#fde489"/><stop offset=".9" style="stop-color:#4f361c"/></linearGradient><path d="M529.2 497.7h-2.6v-9.4l-1-2.1v-3.1h-4.2l-4.2-1.6-3.6-2.1-3.1-3.1c-1.5-2.4-2.5-5.1-3.1-7.8-.4-2.9-.6-5.9-.5-8.9v-14.1l2.6-1 4.2-3.1c1.3-1.2 2.4-2.6 3.1-4.2l1-2.1c.5-1 1-1.6 1-2.6v-1h2.1c0 .3.2.5.5.5h4.2c0-.5 0-1 .5-1v-9.4c-.5-.5-.5-.5-.5-1H522c-.5 0-.5 0-.5.5h-2.6v-2.6h-.5c-.6-1.4-1.3-2.8-2.1-4.2l-3.6-3.6c-2.6-2.1-5.6-3.5-8.9-4.2h-.5v.5h.5c3.3.6 6.3 2.1 8.9 4.2l3.1 3.6c.9 1.3 1.6 2.7 2.1 4.2h.5c.3 1 .4 2.1.5 3.1h6.8v1c.4 1.2.6 2.4.5 3.6 0 1.6-.5 2.6-.5 3.6v1h-7.3l-1 1.6c-.1.9-.3 1.7-.5 2.6-.5.6-.9 1.3-1 2.1l-3.1 4.2-4.2 2.6c-1.4 1-3 1.5-4.7 1.6h-.5v1h2.6v11.5c-.1 3 .1 5.9.5 8.9.7 3 1.9 5.8 3.6 8.3l3.1 3.1 4.2 2.1 4.2 1.6h2.1v1c0 .5 0 1 .5 1v1.6l1 1.6c.1.8.5 1.5 1 2.1v1c.3.3.5.6.5 1v3.6h1l1.6 1 1.6 2.1-1.7-.8z" style="fill:url(#u)"/></svg>